<svg xmlns="http://www.w3.org/2000/svg" width="15" height="15" fill="none" viewBox="0 0 15 15"><path fill="#000" d="M10.1153 6.77809L1.71534 0.178085C1.47534 -0.0019155 1.15534 -0.0419155 0.875342 0.0780845C0.595342 0.218085 0.415344 0.498085 0.415344 0.798085V13.9981C0.415344 14.2981 0.595342 14.5781 0.875342 14.7181C0.995342 14.7781 1.11534 14.7981 1.21534 14.7981C1.39534 14.7981 1.57534 14.7381 1.71534 14.6181L10.1153 8.01808C10.3153 7.85808 10.4153 7.63808 10.4153 7.39808C10.4153 7.15808 10.2953 6.91809 10.1153 6.77809ZM2.01534 12.3581V2.43809L8.31534 7.39808L2.01534 12.3581ZM14.4153 1.11808V13.8181C14.4153 14.3181 14.0153 14.7181 13.5153 14.7181C13.0153 14.7181 12.6153 14.3181 12.6153 13.8181V1.11808C12.6153 0.618085 13.0153 0.218085 13.5153 0.218085C14.0153 0.218085 14.4153 0.618085 14.4153 1.11808Z"/></svg>